<mxfile host="app.diagrams.net" modified="2022-06-13T13:59:24.007Z" agent="5.0 (Windows NT 10.0; Win64; x64) AppleWebKit/537.36 (KHTML, like Gecko) Chrome/102.0.5005.115 Safari/537.36" etag="icVS0DDUmOW2_o7G8u5t" version="20.0.1" type="github">
  <diagram id="ZlZxUqYzVOOaiIdk32MT" name="Page-1">
    <mxGraphModel dx="1420" dy="1264" grid="0" gridSize="10" guides="1" tooltips="1" connect="1" arrows="1" fold="1" page="1" pageScale="1" pageWidth="1100" pageHeight="850" background="#FFFFFF" math="0" shadow="0">
      <root>
        <mxCell id="0" />
        <mxCell id="1" parent="0" />
        <mxCell id="BoPHo_X-6VkHfOXLUw6e-5" value="" style="group" vertex="1" connectable="0" parent="1">
          <mxGeometry x="470" y="120" width="290" height="330" as="geometry" />
        </mxCell>
        <mxCell id="VaQZiIwi53ZDD21OUIRq-1" value="" style="group" parent="BoPHo_X-6VkHfOXLUw6e-5" vertex="1" connectable="0">
          <mxGeometry width="290" height="150" as="geometry" />
        </mxCell>
        <mxCell id="AtH_D0fYJWxPFJwmxlsa-1" value="Walljack" style="rounded=0;whiteSpace=wrap;html=1;fontFamily=Helvetica;" parent="VaQZiIwi53ZDD21OUIRq-1" vertex="1">
          <mxGeometry width="120" height="60" as="geometry" />
        </mxCell>
        <mxCell id="AtH_D0fYJWxPFJwmxlsa-2" value="Router&lt;br&gt;(DHCP, Def. Gateway)&lt;br&gt;192.168.1.1" style="rounded=0;whiteSpace=wrap;html=1;fontFamily=Helvetica;" parent="VaQZiIwi53ZDD21OUIRq-1" vertex="1">
          <mxGeometry y="90" width="120" height="60" as="geometry" />
        </mxCell>
        <mxCell id="AtH_D0fYJWxPFJwmxlsa-3" value="PI-01&lt;br&gt;(DNS)&lt;br&gt;192.168.1.2" style="rounded=0;whiteSpace=wrap;html=1;fontFamily=Helvetica;" parent="VaQZiIwi53ZDD21OUIRq-1" vertex="1">
          <mxGeometry x="151" y="90" width="120" height="60" as="geometry" />
        </mxCell>
        <mxCell id="AtH_D0fYJWxPFJwmxlsa-4" value="" style="endArrow=none;html=1;rounded=0;fontFamily=Helvetica;entryX=0.5;entryY=1;entryDx=0;entryDy=0;strokeWidth=4;" parent="VaQZiIwi53ZDD21OUIRq-1" target="AtH_D0fYJWxPFJwmxlsa-1" edge="1">
          <mxGeometry width="50" height="50" relative="1" as="geometry">
            <mxPoint x="60" y="90" as="sourcePoint" />
            <mxPoint x="110" y="300" as="targetPoint" />
          </mxGeometry>
        </mxCell>
        <mxCell id="AtH_D0fYJWxPFJwmxlsa-5" value="" style="endArrow=none;html=1;rounded=0;fontFamily=Helvetica;entryX=1;entryY=0.5;entryDx=0;entryDy=0;strokeWidth=4;exitX=0;exitY=0.5;exitDx=0;exitDy=0;" parent="VaQZiIwi53ZDD21OUIRq-1" source="AtH_D0fYJWxPFJwmxlsa-3" target="AtH_D0fYJWxPFJwmxlsa-2" edge="1">
          <mxGeometry width="50" height="50" relative="1" as="geometry">
            <mxPoint x="160" y="160" as="sourcePoint" />
            <mxPoint x="70" y="70" as="targetPoint" />
          </mxGeometry>
        </mxCell>
        <mxCell id="BoPHo_X-6VkHfOXLUw6e-1" value="" style="endArrow=none;html=1;rounded=0;fontFamily=Helvetica;strokeWidth=4;exitX=0.5;exitY=1;exitDx=0;exitDy=0;entryX=0.5;entryY=0;entryDx=0;entryDy=0;" edge="1" parent="BoPHo_X-6VkHfOXLUw6e-5" source="AtH_D0fYJWxPFJwmxlsa-2" target="BoPHo_X-6VkHfOXLUw6e-2">
          <mxGeometry width="50" height="50" relative="1" as="geometry">
            <mxPoint x="180" y="130" as="sourcePoint" />
            <mxPoint x="193" y="247" as="targetPoint" />
          </mxGeometry>
        </mxCell>
        <mxCell id="BoPHo_X-6VkHfOXLUw6e-2" value="SG300 Switch" style="rounded=0;whiteSpace=wrap;html=1;fontFamily=Helvetica;" vertex="1" parent="BoPHo_X-6VkHfOXLUw6e-5">
          <mxGeometry y="180" width="120" height="60" as="geometry" />
        </mxCell>
        <mxCell id="BoPHo_X-6VkHfOXLUw6e-3" value="" style="endArrow=none;html=1;rounded=0;fontFamily=Helvetica;strokeWidth=4;exitX=0.5;exitY=1;exitDx=0;exitDy=0;entryX=0.5;entryY=0;entryDx=0;entryDy=0;" edge="1" parent="BoPHo_X-6VkHfOXLUw6e-5" source="BoPHo_X-6VkHfOXLUw6e-2" target="BoPHo_X-6VkHfOXLUw6e-4">
          <mxGeometry width="50" height="50" relative="1" as="geometry">
            <mxPoint x="70" y="160" as="sourcePoint" />
            <mxPoint x="143" y="252" as="targetPoint" />
          </mxGeometry>
        </mxCell>
        <mxCell id="BoPHo_X-6VkHfOXLUw6e-4" value="MOTHERBASE&lt;br&gt;192.168.1.201" style="rounded=0;whiteSpace=wrap;html=1;fontFamily=Helvetica;" vertex="1" parent="BoPHo_X-6VkHfOXLUw6e-5">
          <mxGeometry y="270" width="120" height="60" as="geometry" />
        </mxCell>
        <mxCell id="BoPHo_X-6VkHfOXLUw6e-6" value="SlowAssHP&lt;br&gt;192.168.1.249" style="rounded=0;whiteSpace=wrap;html=1;fontFamily=Helvetica;" vertex="1" parent="BoPHo_X-6VkHfOXLUw6e-5">
          <mxGeometry x="154" y="180" width="120" height="60" as="geometry" />
        </mxCell>
        <mxCell id="BoPHo_X-6VkHfOXLUw6e-8" value="DC01&lt;br&gt;192.168.1.250" style="rounded=0;whiteSpace=wrap;html=1;fontFamily=Helvetica;" vertex="1" parent="BoPHo_X-6VkHfOXLUw6e-5">
          <mxGeometry x="154" y="270" width="120" height="60" as="geometry" />
        </mxCell>
        <mxCell id="BoPHo_X-6VkHfOXLUw6e-10" value="" style="endArrow=none;html=1;rounded=0;fontFamily=Helvetica;strokeWidth=4;exitX=1;exitY=1;exitDx=0;exitDy=0;entryX=0.5;entryY=0;entryDx=0;entryDy=0;" edge="1" parent="BoPHo_X-6VkHfOXLUw6e-5" source="BoPHo_X-6VkHfOXLUw6e-2" target="BoPHo_X-6VkHfOXLUw6e-8">
          <mxGeometry width="50" height="50" relative="1" as="geometry">
            <mxPoint x="70" y="250" as="sourcePoint" />
            <mxPoint x="70" y="280" as="targetPoint" />
          </mxGeometry>
        </mxCell>
        <mxCell id="BoPHo_X-6VkHfOXLUw6e-11" value="" style="endArrow=none;html=1;rounded=0;fontFamily=Helvetica;strokeWidth=4;exitX=1;exitY=0.5;exitDx=0;exitDy=0;entryX=0;entryY=0.5;entryDx=0;entryDy=0;" edge="1" parent="BoPHo_X-6VkHfOXLUw6e-5" source="BoPHo_X-6VkHfOXLUw6e-2" target="BoPHo_X-6VkHfOXLUw6e-6">
          <mxGeometry width="50" height="50" relative="1" as="geometry">
            <mxPoint x="100" y="250" as="sourcePoint" />
            <mxPoint x="224" y="280" as="targetPoint" />
          </mxGeometry>
        </mxCell>
        <mxCell id="BoPHo_X-6VkHfOXLUw6e-7" value="MOTHERBASE&lt;br&gt;192.168.1.117" style="rounded=0;whiteSpace=wrap;html=1;fontFamily=Helvetica;" vertex="1" parent="1">
          <mxGeometry x="726" y="737" width="120" height="60" as="geometry" />
        </mxCell>
      </root>
    </mxGraphModel>
  </diagram>
</mxfile>
